<svg width="10" height="7" viewBox="0 0 10 7" fill="none" xmlns="http://www.w3.org/2000/svg">
<path d="M0.684847 1.14233C0.6302 1.19684 0.586843 1.2616 0.557261 1.33289C0.527678 1.40418 0.512451 1.48061 0.512451 1.55779C0.512451 1.63498 0.527678 1.7114 0.557261 1.78269C0.586843 1.85399 0.6302 1.91874 0.684847 1.97325L4.63287 5.92128C4.6763 5.9648 4.72789 5.99932 4.78468 6.02288C4.84147 6.04644 4.90235 6.05856 4.96383 6.05856C5.02532 6.05856 5.08619 6.04644 5.14298 6.02288C5.19977 5.99932 5.25136 5.9648 5.29479 5.92128L9.24282 1.97325C9.47285 1.74322 9.47285 1.37236 9.24282 1.14233C9.01279 0.912305 8.64193 0.912305 8.4119 1.14233L4.96618 4.58805L1.51576 1.13764C1.28574 0.912305 0.914875 0.912306 0.684847 1.14233Z" fill="#333333"/>
</svg>
