<svg width="14" height="14" viewBox="0 0 14 14" fill="none" xmlns="http://www.w3.org/2000/svg">
<g clip-path="url(#clip0_6225_10071)">
<path d="M0 4.66667V4.08333C0 2.47508 1.30842 1.16667 2.91667 1.16667H3.5V0.583333C3.5 0.261333 3.76075 0 4.08333 0C4.40592 0 4.66667 0.261333 4.66667 0.583333V1.16667H9.33333V0.583333C9.33333 0.261333 9.59408 0 9.91667 0C10.2392 0 10.5 0.261333 10.5 0.583333V1.16667H11.0833C12.6916 1.16667 14 2.47508 14 4.08333V4.66667H0ZM14 5.83333V11.0833C14 12.6916 12.6916 14 11.0833 14H2.91667C1.30842 14 0 12.6916 0 11.0833V5.83333H14ZM7 11.0833C7 10.7613 6.73925 10.5 6.41667 10.5H3.5C3.17742 10.5 2.91667 10.7613 2.91667 11.0833C2.91667 11.4053 3.17742 11.6667 3.5 11.6667H6.41667C6.73925 11.6667 7 11.4053 7 11.0833ZM11.0833 8.75C11.0833 8.428 10.8226 8.16667 10.5 8.16667H3.5C3.17742 8.16667 2.91667 8.428 2.91667 8.75C2.91667 9.072 3.17742 9.33333 3.5 9.33333H10.5C10.8226 9.33333 11.0833 9.072 11.0833 8.75Z" fill="#EB5757"/>
</g>
<defs>
<clipPath id="clip0_6225_10071">
<rect width="14" height="14" fill="white"/>
</clipPath>
</defs>
</svg>
