<svg width="16" height="16" viewBox="0 0 12 12" fill="none" xmlns="http://www.w3.org/2000/svg">
<g clip-path="url(#clip0_6225_7116)">
<path d="M11.8536 0.146515C11.7599 0.0527798 11.6327 0.00012207 11.5001 0.00012207C11.3676 0.00012207 11.2404 0.0527798 11.1466 0.146515L6.00014 5.29302L0.853638 0.146515C0.759874 0.0527798 0.63272 0.00012207 0.500137 0.00012207C0.367555 0.00012207 0.240401 0.0527798 0.146637 0.146515C0.0529019 0.240279 0.000244141 0.367433 0.000244141 0.500015C0.000244141 0.632597 0.0529019 0.759752 0.146637 0.853515L5.29314 6.00002L0.146637 11.1465C0.0529019 11.2403 0.000244141 11.3674 0.000244141 11.5C0.000244141 11.6326 0.0529019 11.7598 0.146637 11.8535C0.240401 11.9473 0.367555 11.9999 0.500137 11.9999C0.63272 11.9999 0.759874 11.9473 0.853638 11.8535L6.00014 6.70702L11.1466 11.8535C11.2404 11.9473 11.3676 11.9999 11.5001 11.9999C11.6327 11.9999 11.7599 11.9473 11.8536 11.8535C11.9474 11.7598 12 11.6326 12 11.5C12 11.3674 11.9474 11.2403 11.8536 11.1465L6.70714 6.00002L11.8536 0.853515C11.9474 0.759752 12 0.632597 12 0.500015C12 0.367433 11.9474 0.240279 11.8536 0.146515Z" fill="#EB5757"/>
</g>
<defs>
<clipPath id="clip0_6225_7116">
<rect width="12" height="12" fill="white"/>
</clipPath>
</defs>
</svg>
