<svg width="32" height="32" viewBox="0 0 32 32" fill="none" xmlns="http://www.w3.org/2000/svg">
<path fill-rule="evenodd" clip-rule="evenodd" d="M20.9782 5.32591C20.9782 4.78563 21.4162 4.34766 21.9564 4.34766H26.8477C27.388 4.34766 27.8259 4.78563 27.8259 5.32591V10.2172C27.8259 10.7574 27.388 11.1954 26.8477 11.1954C26.3074 11.1954 25.8694 10.7574 25.8694 10.2172V6.30416H21.9564C21.4162 6.30416 20.9782 5.86618 20.9782 5.32591Z" fill="#EB5757"/>
<path fill-rule="evenodd" clip-rule="evenodd" d="M5.32615 20.9779C5.86643 20.9779 6.3044 21.4159 6.3044 21.9562V25.8692H10.2174C10.7577 25.8692 11.1957 26.3072 11.1957 26.8474C11.1957 27.3877 10.7577 27.8257 10.2174 27.8257H5.32615C4.78588 27.8257 4.3479 27.3877 4.3479 26.8474V21.9562C4.3479 21.4159 4.78588 20.9779 5.32615 20.9779Z" fill="#EB5757"/>
<path fill-rule="evenodd" clip-rule="evenodd" d="M26.8477 20.9779C27.388 20.9779 27.8259 21.4159 27.8259 21.9562V26.8474C27.8259 27.3877 27.388 27.8257 26.8477 27.8257H21.9564C21.4162 27.8257 20.9782 27.3877 20.9782 26.8474C20.9782 26.3072 21.4162 25.8692 21.9564 25.8692H25.8694V21.9562C25.8694 21.4159 26.3074 20.9779 26.8477 20.9779Z" fill="#EB5757"/>
<path fill-rule="evenodd" clip-rule="evenodd" d="M4.3479 5.32591C4.3479 4.78563 4.78588 4.34766 5.32615 4.34766H10.2174C10.7577 4.34766 11.1957 4.78563 11.1957 5.32591C11.1957 5.86618 10.7577 6.30416 10.2174 6.30416H6.3044V10.2172C6.3044 10.7574 5.86643 11.1954 5.32615 11.1954C4.78588 11.1954 4.3479 10.7574 4.3479 10.2172V5.32591Z" fill="#EB5757"/>
<path fill-rule="evenodd" clip-rule="evenodd" d="M9.23916 11.1954C9.23916 10.1149 10.1151 9.23891 11.1957 9.23891H20.9782C22.0587 9.23891 22.9347 10.1149 22.9347 11.1954V20.9779C22.9347 22.0585 22.0587 22.9344 20.9782 22.9344H11.1957C10.1151 22.9344 9.23916 22.0585 9.23916 20.9779V11.1954ZM20.9782 11.1954H11.1957V20.9779H20.9782V11.1954Z" fill="#EB5757"/>
</svg>