<svg width="9" height="19" viewBox="0 0 9 19" fill="none" xmlns="http://www.w3.org/2000/svg">
<path d="M9 1.55328C8.93235 1.84332 8.75747 2.05039 8.57111 2.2564C6.42623 4.61469 4.28274 6.97438 2.14063 9.33547C2.09314 9.3822 2.04317 9.42575 1.99096 9.4659L1.96256 9.54676C2.0184 9.58192 2.08478 9.60442 2.12849 9.65223C4.2772 12.0147 6.42485 14.378 8.57143 16.7422C8.75779 16.9471 8.93267 17.1542 9 17.4453V17.7617C8.89342 18.1365 8.67163 18.3843 8.32986 18.5H8.01074C7.75003 18.4075 7.56207 18.2064 7.37251 17.9987C5.07169 15.4609 2.76886 12.9248 0.463994 10.3905C0.272525 10.1796 0.0836081 9.96863 0 9.67578V9.32422C0.0848846 9.03066 0.271249 8.82007 0.463675 8.60843C2.76832 6.07484 5.07116 3.53891 7.37219 1.00062C7.56047 0.7925 7.74939 0.593164 8.01042 0.5H8.32954C8.39177 0.528828 8.45432 0.556952 8.51622 0.586835C8.7779 0.713046 8.90618 0.960195 8.99968 1.23828L9 1.55328Z" fill="#EB5757"/>
</svg>
