<svg width="16" height="16" viewBox="0 0 16 16" fill="none" xmlns="http://www.w3.org/2000/svg">
<g clip-path="url(#clip0_6225_10080)">
<path d="M6.66687 12.6667H5.33353V11.122C4.69265 10.551 4.18235 9.8486 3.83736 9.06263C3.49237 8.27667 3.3208 7.42558 3.33434 6.56734C3.34788 5.70909 3.54621 4.86385 3.91581 4.08915C4.28542 3.31445 4.81763 2.6285 5.4762 2.078C5.2092 2.02855 4.9384 2.00245 4.66687 2C3.49331 2.00904 2.36625 2.45992 1.51027 3.26279C0.654282 4.06566 0.132229 5.16157 0.048136 6.33214C-0.0359568 7.50271 0.324085 8.66199 1.05652 9.57897C1.78895 10.496 2.83999 11.1033 4.0002 11.28V12.6667H2.66687C2.49006 12.6667 2.32049 12.7369 2.19546 12.8619C2.07044 12.987 2.0002 13.1565 2.0002 13.3333C2.0002 13.5101 2.07044 13.6797 2.19546 13.8047C2.32049 13.9298 2.49006 14 2.66687 14H4.0002V15.3333C4.0002 15.5101 4.07044 15.6797 4.19546 15.8047C4.32049 15.9298 4.49006 16 4.66687 16C4.84368 16 5.01325 15.9298 5.13827 15.8047C5.2633 15.6797 5.33353 15.5101 5.33353 15.3333V14H6.66687C6.84368 14 7.01325 13.9298 7.13827 13.8047C7.2633 13.6797 7.33353 13.5101 7.33353 13.3333C7.33353 13.1565 7.2633 12.987 7.13827 12.8619C7.01325 12.7369 6.84368 12.6667 6.66687 12.6667Z" fill="#EB5757"/>
<path d="M14.6662 0H11.9995C11.8227 0 11.6532 0.0702379 11.5281 0.195262C11.4031 0.320286 11.3329 0.489856 11.3329 0.666667C11.3329 0.843478 11.4031 1.01305 11.5281 1.13807C11.6532 1.2631 11.8227 1.33333 11.9995 1.33333H13.7235L12.1235 2.93333C11.1756 2.22272 9.99358 1.89762 8.81553 2.02348C7.63749 2.14934 6.55087 2.71681 5.77442 3.61165C4.99796 4.50649 4.58934 5.66226 4.6308 6.84628C4.67227 8.0303 5.16074 9.15465 5.99789 9.99299C6.83504 10.8313 7.9587 11.3214 9.14266 11.3645C10.3266 11.4077 11.483 11.0007 12.3789 10.2255C13.2748 9.4503 13.8439 8.36448 13.9714 7.18661C14.0989 6.00875 13.7755 4.82631 13.0662 3.87733L14.6662 2.27733V4C14.6662 4.17681 14.7364 4.34638 14.8615 4.4714C14.9865 4.59643 15.1561 4.66667 15.3329 4.66667C15.5097 4.66667 15.6792 4.59643 15.8043 4.4714C15.9293 4.34638 15.9995 4.17681 15.9995 4V1.33333C15.9995 0.979711 15.8591 0.640573 15.609 0.390524C15.359 0.140476 15.0198 0 14.6662 0V0Z" fill="#EB5757"/>
</g>
<defs>
<clipPath id="clip0_6225_10080">
<rect width="16" height="16" fill="white"/>
</clipPath>
</defs>
</svg>
